# xmcd
#
# Track frame offsets:
#	150
#	17611
#	37208
#	60579
#	79029
#	101621
#	126481
#	150536
#	170081
#	186478
#	216677
#	239051
#	261144
#
# Disc length: 4051 seconds
#
# Revision: 0
# Processed by: cddbd v1.5.2PL0 Copyright (c) Steve Scherf et al.
# Submitted via: EasyCDDAExtractor 15.3.0.1
#
DISCID=c40fd10d
DTITLE=Mister and Sunbird - The Anatomy of Mister and Sunbird
DYEAR=2014
DGENRE=Blues
TTITLE0=\nSeven Years Bad Luck
TTITLE1=Blues For Lady Macbeth
TTITLE2=Rockin' in the Soft Parade
TTITLE3=\nGirls Don't Like Rhyme
TTITLE4=Boom
TTITLE5=Bomp n' Roll
TTITLE6=	\nI Gave Myself Up to the River
TTITLE7=\nThe Bottom of White
TTITLE8=My Baby Must Be Blind
TTITLE9=\nIn the Smokers' Room
TTITLE10=	\nWhen Your Lids Fall (Henry's Lullaby)
TTITLE11=\nLa Guapa en Barcelona
TTITLE12=High Tea
EXTD=
EXTT0=
EXTT1=
EXTT2=
EXTT3=
EXTT4=
EXTT5=
EXTT6=
EXTT7=
EXTT8=
EXTT9=
EXTT10=
EXTT11=
EXTT12=
PLAYORDER=
